<?xml version="1.0" encoding="UTF-8"?>
<svg id="Layer_1" data-name="Layer 1" xmlns="http://www.w3.org/2000/svg" viewBox="0 0 784.02 255.36">
  <path fill="#FFFBFB" d="m105.28,172.74c.55,4.5-.3,8.05-.75,11.57-2.89,22.62-5.95,45.21-8.99,67.8-.31,2.32.51,3.22,2.84,3.22,15.36-.03,30.72,0,46.08.03,2.12,0,3.06-.75,2.71-3-1.99-13.01-3.75-26.05-5.32-39.12-1.47-12.24-3.61-24.4-4.6-36.7-.07-.84-.81-2.06.48-2.42,1.05-.29,1.44.87,1.99,1.62,1.04,1.42,2.22,2.74,3.3,4.13,14.32,18.44,28.63,36.88,42.94,55.33,2.48,3.2,2.85,3.24,5.67.43,10.45-10.39,20.84-20.84,31.39-31.13,1.96-1.91,1.57-2.74-.34-4.2-9.23-7.06-18.37-14.24-27.55-21.36-11.23-8.71-22.48-17.4-33.71-26.11-.59-.46-1.78-.73-1.28-1.8.44-.94,1.46-.52,2.25-.42,1.85.24,3.69.53,5.54.76,11.11,1.35,22.26,2.46,33.33,4.11,12,1.78,24.07,2.99,36.09,4.52,4.43.56,4.86.03,4.84-4.39-.03-7.06.07-14.12-.11-21.17-.32-12.99-9.87-22.16-22.82-22.03-7.69.08-15.26,1.49-22.88,2.33-11.43,1.26-22.82,2.94-34.22,4.44-.72.09-1.56.33-1.88-.55-.33-.89.5-1.22,1.07-1.65,9.74-7.41,19.52-14.78,29.21-22.26,6.06-4.68,12.9-8.51,17.81-14.52,5.76-7.05,6.81-15.09,2.95-23.33-3.78-8.09-10.13-13.04-19.37-13.46-8.04-.36-14.53,2.8-19.57,9.01-11.31,13.94-21.53,28.73-33.02,42.53-.56.67-.87,1.94-2.01,1.61-.85-.24-.48-1.23-.39-1.92,2.28-17.99,4.49-36,6.88-53.97,2.16-16.24-11.62-29.05-27.71-25.6-11.72,2.51-18.95,13.08-17.48,25.96,1.16,10.09,2.65,20.14,3.95,30.21.99,7.71,1.91,15.43,2.85,23.14.09.7.41,1.6-.36,1.99-.92.47-1.17-.56-1.58-1.09-2.99-3.86-5.92-7.75-8.93-11.59-8.5-10.87-16.78-21.93-25.62-32.52-8.99-10.77-25.25-10.33-34.47.18-6.91,7.88-8.27,23.88,4.35,33.26,14.24,10.58,28.19,21.54,42.28,32.31.57.44,1.41.69,1.07,1.61-.34.89-1.18.68-1.88.6-8.74-1.06-17.49-2.12-26.23-3.22-10.89-1.36-21.73-3.44-32.75-3.4-9.78.04-19.09,7.98-20.58,17.61-1.39,8.95-.33,18.02-.54,27.03-.08,3.41.44,3.67,3.87,3.21,11.91-1.6,23.85-3.07,35.75-4.72,13.55-1.88,27.23-2.73,40.69-5.25.76-.14,1.76-.77,2.16.35.35.95-.62,1.4-1.27,1.9-6.79,5.3-13.53,10.65-20.36,15.9-13.74,10.56-27.49,21.09-41.3,31.56-2.25,1.71-2.32,2.94-.24,4.86,4.73,4.35,9.31,8.88,13.93,13.35,6.19,5.99,12.37,11.99,18.54,18,1.33,1.29,2.38,1.7,3.78-.09,10.72-13.74,21.54-27.41,32.29-41.14,5.61-7.17,11.14-14.42,17.25-22.34ZM238.55,36.19c10.21-.01,18.38-8.04,18.34-18.03C256.86,8.08,248.7-.01,238.59,0c-9.89.01-18.67,8.79-18.54,18.54.13,9.72,8.46,17.67,18.5,17.66Z"/>
  <g>
    <path fill="#FFFBFB" d="m366.43,180.6l-6.58-17.76h-35.29l-6.58,17.76h-12.28l29.15-76.94h14.69l29.16,76.94h-12.28Zm-24.22-65.1l-13.81,37.05h27.62l-13.81-37.05Z"/>
    <path fill="#FFFBFB" d="m435.26,180.6h-10.74l-23.24-53.93v53.93h-11.84v-76.94h14.03l26.42,61.6,26.41-61.6h14.03v76.94h-11.84v-53.93l-23.24,53.93Z"/>
    <path fill="#FFFBFB" d="m523.6,156.27h-22.8v24.33h-12.06v-76.94h34.85c8.11,0,14.07,1.74,17.87,5.21,3.8,3.47,5.7,9.08,5.7,16.82v8.55c0,7.75-1.9,13.36-5.7,16.82-3.8,3.47-9.75,5.21-17.87,5.21Zm-22.8-10.2h22.14c4.24,0,7.32-.95,9.26-2.85,1.93-1.9,2.9-4.93,2.9-9.1v-8.22c0-4.16-.97-7.2-2.9-9.1-1.94-1.9-5.02-2.85-9.26-2.85h-22.14v32.11Z"/>
    <path fill="#FFFBFB" d="m563.49,103.66h12.06v66.53h37.81v10.41h-49.87v-76.94Z"/>
    <path fill="#FFFBFB" d="m637.15,180.6h-12.06v-76.94h12.06v76.94Z"/>
    <path fill="#FFFBFB" d="m668.16,180.6h-12.06v-76.94h50.96v10.41h-38.91v23.02h36.72v10.3h-36.72v33.21Z"/>
    <path fill="#FFFBFB" d="m754.97,180.6h-12.06v-26.85l-29.04-50.09h13.04l22.03,38.03,22.03-38.03h13.04l-29.05,50.09v26.85Z"/>
  </g>
</svg>