<?xml version="1.0" encoding="UTF-8"?>
<svg id="Layer_1" data-name="Layer 1" xmlns="http://www.w3.org/2000/svg" viewBox="0 0 300 300">
  <path fill="#FFFBFB" d="m129.03,191.48c.51,4.19-.28,7.5-.7,10.77-2.69,21.06-5.54,42.1-8.37,63.14-.29,2.16.47,3,2.65,3,14.3-.03,28.6,0,42.91.03,1.98,0,2.85-.7,2.52-2.79-1.86-12.12-3.49-24.26-4.96-36.43-1.37-11.4-3.36-22.72-4.29-34.18-.06-.78-.75-1.92.45-2.25.98-.27,1.34.81,1.85,1.51.97,1.32,2.07,2.55,3.07,3.84,13.33,17.17,26.66,34.34,39.98,51.52,2.31,2.98,2.66,3.02,5.28.4,9.73-9.68,19.4-19.41,29.23-28.98,1.83-1.78,1.46-2.56-.31-3.91-8.6-6.57-17.1-13.26-25.65-19.89-10.46-8.11-20.93-16.2-31.39-24.32-.55-.43-1.66-.68-1.19-1.68.41-.87,1.36-.48,2.09-.39,1.72.22,3.44.49,5.16.7,10.35,1.26,20.73,2.29,31.03,3.82,11.18,1.66,22.41,2.78,33.61,4.21,4.12.53,4.53.03,4.51-4.09-.03-6.57.06-13.14-.1-19.71-.3-12.1-9.19-20.64-21.25-20.51-7.16.07-14.21,1.39-21.31,2.17-10.64,1.17-21.25,2.74-31.86,4.13-.67.09-1.45.31-1.75-.51-.31-.83.46-1.13,1-1.54,9.07-6.9,18.17-13.76,27.2-20.73,5.65-4.36,12.01-7.92,16.58-13.52,5.37-6.56,6.34-14.05,2.75-21.73-3.52-7.54-9.43-12.15-18.04-12.53-7.48-.34-13.53,2.61-18.22,8.39-10.54,12.98-20.05,26.75-30.74,39.61-.52.62-.81,1.8-1.88,1.5-.79-.23-.45-1.14-.37-1.78,2.12-16.75,4.18-33.52,6.41-50.26,2.01-15.12-10.82-27.05-25.8-23.84-10.91,2.34-17.65,12.18-16.27,24.18,1.08,9.39,2.47,18.75,3.68,28.13.92,7.18,1.78,14.36,2.66,21.55.08.65.38,1.49-.34,1.85-.86.43-1.09-.52-1.47-1.01-2.78-3.59-5.52-7.21-8.31-10.79-7.92-10.12-15.62-20.42-23.85-30.28-8.37-10.03-23.52-9.62-32.1.17-6.43,7.33-7.7,22.24,4.05,30.97,13.26,9.85,26.25,20.05,39.37,30.09.53.41,1.32.64.99,1.5-.31.83-1.1.63-1.75.55-8.14-.99-16.28-1.98-24.42-2.99-10.14-1.27-20.24-3.21-30.49-3.17-9.11.04-17.77,7.43-19.16,16.39-1.29,8.33-.31,16.78-.5,25.17-.07,3.17.41,3.42,3.61,2.99,11.09-1.49,22.2-2.86,33.29-4.4,12.61-1.75,25.35-2.54,37.89-4.89.7-.13,1.64-.71,2.01.32.32.89-.58,1.3-1.18,1.77-6.32,4.94-12.6,9.92-18.96,14.81-12.79,9.83-25.6,19.64-38.46,29.38-2.1,1.59-2.16,2.74-.22,4.52,4.41,4.05,8.67,8.27,12.97,12.44,5.76,5.58,11.52,11.16,17.26,16.76,1.24,1.21,2.22,1.58,3.52-.08,9.99-12.8,20.06-25.52,30.06-38.3,5.23-6.68,10.37-13.42,16.06-20.8Zm124.1-127.15c9.51-.01,17.11-7.48,17.08-16.79-.03-9.39-7.63-16.93-17.04-16.91-9.21.01-17.38,8.18-17.27,17.26.12,9.05,7.88,16.45,17.23,16.44Z"/>
</svg>