<?xml version="1.0" encoding="utf-8"?>
<!-- Generator: Adobe Illustrator 27.5.0, SVG Export Plug-In . SVG Version: 6.00 Build 0)  -->
<!DOCTYPE svg PUBLIC "-//W3C//DTD SVG 1.1//EN" "http://www.w3.org/Graphics/SVG/1.1/DTD/svg11.dtd" [
	<!ENTITY st0 "fill-rule:evenodd;clip-rule:evenodd;fill:url(#BG_00000124162114622412980700000018166881506913875604_);">
	<!ENTITY st1 "fill-rule:evenodd;clip-rule:evenodd;fill:url(#SVGID_1_);">
	<!ENTITY st2 "fill-rule:evenodd;clip-rule:evenodd;fill:url(#Layer11_00000080203042549323718570000018017910926427581068_);">
	<!ENTITY st3 "fill-rule:evenodd;clip-rule:evenodd;fill:url(#Layer10_00000111181558936475016360000004916172766585160887_);">
	<!ENTITY st4 "opacity:0.2024;fill-rule:evenodd;clip-rule:evenodd;fill:#FFFFFF;enable-background:new    ;">
	<!ENTITY st5 "opacity:0.5135;fill-rule:evenodd;clip-rule:evenodd;fill:#FFFFFF;enable-background:new    ;">
	<!ENTITY st6 "opacity:0.6668;fill-rule:evenodd;clip-rule:evenodd;fill:#FFFFFF;enable-background:new    ;">
	<!ENTITY st7 "opacity:0.5414;fill-rule:evenodd;clip-rule:evenodd;fill:#FFFFFF;enable-background:new    ;">
	<!ENTITY st8 "fill-rule:evenodd;clip-rule:evenodd;fill:url(#Layer9_00000028293261785478204320000001008642403652536709_);">
	<!ENTITY st9 "fill-rule:evenodd;clip-rule:evenodd;fill:url(#Layer6_00000161601172055844439750000017208370518653236407_);">
	<!ENTITY st10 "fill-rule:evenodd;clip-rule:evenodd;fill:url(#Layer5_00000004539325129726082850000007504551507850375084_);">
	<!ENTITY st11 "fill-rule:evenodd;clip-rule:evenodd;fill:url(#Layer4_00000156568412421719959540000002736365153123782541_);">
	<!ENTITY st12 "fill-rule:evenodd;clip-rule:evenodd;fill:url(#Layer3_00000127020796540852143110000005670953103940304518_);">
	
		<!ENTITY st13 "fill-rule:evenodd;clip-rule:evenodd;fill:url(#Path-27-Copy_00000085237446011968902820000007297480767569218467_);">
	<!ENTITY st14 "fill-rule:evenodd;clip-rule:evenodd;fill:url(#SVGID_00000016775149134529783600000007980597472013036965_);">
	<!ENTITY st15 "fill-rule:evenodd;clip-rule:evenodd;fill:url(#SVGID_00000057847764982392132930000000703878558940341669_);">
	<!ENTITY st16 "fill-rule:evenodd;clip-rule:evenodd;fill:url(#SVGID_00000134245556876382828580000017182393751632915351_);">
	<!ENTITY st17 "fill-rule:evenodd;clip-rule:evenodd;fill:url(#SVGID_00000106859052062105026050000010283227381270760088_);">
	<!ENTITY st18 "fill-rule:evenodd;clip-rule:evenodd;fill:url(#SVGID_00000024720992500873939400000001225906806850166175_);">
	<!ENTITY st19 "fill-rule:evenodd;clip-rule:evenodd;fill:url(#SVGID_00000166634599348367235320000003166863142251804566_);">
	<!ENTITY st20 "fill-rule:evenodd;clip-rule:evenodd;fill:url(#SVGID_00000136390026690628357240000002381683147775202448_);">
	<!ENTITY st21 "fill-rule:evenodd;clip-rule:evenodd;fill:url(#SVGID_00000003806573362680517220000012565141137778303398_);">
	<!ENTITY st22 "fill-rule:evenodd;clip-rule:evenodd;fill:url(#Layer1_00000051382667071899196630000003007812805513009593_);">
	<!ENTITY st23 "fill-rule:evenodd;clip-rule:evenodd;fill:url(#SVGID_00000018213843222384199280000007361755845684104090_);">
	<!ENTITY st24 "fill-rule:evenodd;clip-rule:evenodd;fill:url(#SVGID_00000156560902129478477870000014226727267971904419_);">
	<!ENTITY st25 "fill-rule:evenodd;clip-rule:evenodd;fill:url(#SVGID_00000062912351039729821370000007980982777900837022_);">
	<!ENTITY st26 "fill-rule:evenodd;clip-rule:evenodd;fill:url(#SVGID_00000090276995058664688300000013768948513469906560_);">
	<!ENTITY st27 "fill-rule:evenodd;clip-rule:evenodd;fill:url(#SVGID_00000150080451532989777850000017528681243248245128_);">
	
		<!ENTITY st28 "fill-rule:evenodd;clip-rule:evenodd;fill:url(#Triangle-Copy-95_00000101070185675469607130000002088696776657892790_);">
	
		<!ENTITY st29 "fill-rule:evenodd;clip-rule:evenodd;fill:url(#Triangle-Copy-98_00000163048856429964736180000016376742093460630938_);">
	
		<!ENTITY st30 "fill-rule:evenodd;clip-rule:evenodd;fill:url(#Triangle-Copy-99_00000055678430504786966780000006710648269899959470_);">
]>
<svg version="1.1" id="Parall" xmlns="http://www.w3.org/2000/svg" xmlns:xlink="http://www.w3.org/1999/xlink" x="0px" y="0px"
	 viewBox="0 0 1045.6 629.8" style="enable-background:new 0 0 1045.6 629.8;" xml:space="preserve">
<g>
	
		<linearGradient id="Layer5_00000139265322185817621730000004170406766432314762_" gradientUnits="userSpaceOnUse" x1="226.1822" y1="1071.8661" x2="226.1822" y2="1071.5306" gradientTransform="matrix(2293 0 0 -452 -518025 484810.7812)">
		<stop  offset="0" style="stop-color:#72557E"/>
		<stop  offset="1" style="stop-color:#E29D97"/>
	</linearGradient>
	
		<path id="Layer5_00000083767217327374274210000003630526622748053380_" style="fill-rule:evenodd;clip-rule:evenodd;fill:url(#Layer5_00000139265322185817621730000004170406766432314762_);" d="
		M-18.1,580.9V393.3c28.2-1.5,47.8-5.4,59-11.7c16.7-9.5,30.3-15.7,42.8-15.7c12.5,0,39.6,12.4,53.3,15.7c13.7,3.3,24,15.5,46,18.9
		c22,3.3,27.5,7,35.7,11.4c8.2,4.4,7,8.5,24.5,8.5c17.6,0,62.2,9.1,76.5,4.5c14.3-4.5,51-22.7,60.9-27.1c9.9-4.5,16.2-10,29.5-16.2
		c13.3-6.2,16.3-6.2,27.6-6.2c11.3,0,24.7,0.1,37.8-4.7c13.1-4.8,19.6-10.9,33.4-15s8.4-11.7,24.2-8.2s41.7,10.5,57.7,10.5
		s39.2,2.4,55.6,0c16.4-2.4,40.7-5.5,52.3-10.5c11.6-5.1,10.8-10.2,20.6-5.1c9.8,5.1,17.8,13.2,26.1,13.2s20.7,4.3,26.6,7.2
		c5.9,2.9,25.8,18.3,47.4,23.1c21.7,4.8,47.5,14.3,63,14.3c15.5,0,33,11.4,59,11.4s233.1,35.9,252.9,35.9c13.2,0,28.3,0,45.4,0
		v133.1H-18.1z"/>
	
		<linearGradient id="Layer4_00000018941960972769145600000009930995183662055083_" gradientUnits="userSpaceOnUse" x1="226.1242" y1="1071.9365" x2="226.1242" y2="1071.4568" gradientTransform="matrix(1996 0 0 -441 -450707 473086.625)">
		<stop  offset="0" style="stop-color:#72557E"/>
		<stop  offset="1" style="stop-color:#E29D97"/>
	</linearGradient>
	
		<path id="Layer4_00000041982490659196257990000017358799274857635974_" style="fill-rule:evenodd;clip-rule:evenodd;fill:url(#Layer4_00000018941960972769145600000009930995183662055083_);" d="
		M89.4,604.5v-74.9c15.6-30.8,38.8-48.8,69.7-53.9c46.3-7.6,95.3-16.9,109.9-22.9c10.3-4.2,29.1-7.6,49.9-10.2
		c8.7-1.1,19.1,3.9,26.5,6.6c25.2,9.2,109-31.8,144.9-27.2c35.9,4.6,41.7-14,60.1-16.9c18.4-2.9,73.5,12.4,86.5,12.4
		c13.1,0,68.9-12.4,78.7-12.4c9.8,0,41.7-8.5,49.6-12.4c7.9-3.9,34.8-8.9,47.1-6.9s35.2,2.9,49.8,0s27.9-7.6,48.3-7.6
		c20.5,0,93.5-17.1,130.5-15.3c37,1.8,46.5,5.9,76.5,10.6c20,3.2,42.3,4.7,66.7,4.7v226.5H89.4z"/>
</g>
</svg>
