<?xml version="1.0" encoding="utf-8"?>
<!-- Generator: Adobe Illustrator 27.5.0, SVG Export Plug-In . SVG Version: 6.00 Build 0)  -->
<!DOCTYPE svg PUBLIC "-//W3C//DTD SVG 1.1//EN" "http://www.w3.org/Graphics/SVG/1.1/DTD/svg11.dtd" [
	<!ENTITY st0 "fill-rule:evenodd;clip-rule:evenodd;fill:url(#BG_00000086663463641474686370000016166885809753665154_);">
	<!ENTITY st1 "fill-rule:evenodd;clip-rule:evenodd;fill:url(#SVGID_1_);">
	<!ENTITY st2 "fill-rule:evenodd;clip-rule:evenodd;fill:url(#Layer11_00000019645378088292673720000010065212212802773386_);">
	<!ENTITY st3 "fill-rule:evenodd;clip-rule:evenodd;fill:url(#Layer10_00000100375473468654988180000017469729058003048361_);">
	<!ENTITY st4 "opacity:0.2024;fill-rule:evenodd;clip-rule:evenodd;fill:#FFFFFF;enable-background:new    ;">
	<!ENTITY st5 "opacity:0.5135;fill-rule:evenodd;clip-rule:evenodd;fill:#FFFFFF;enable-background:new    ;">
	<!ENTITY st6 "opacity:0.6668;fill-rule:evenodd;clip-rule:evenodd;fill:#FFFFFF;enable-background:new    ;">
	<!ENTITY st7 "opacity:0.5414;fill-rule:evenodd;clip-rule:evenodd;fill:#FFFFFF;enable-background:new    ;">
	<!ENTITY st8 "fill-rule:evenodd;clip-rule:evenodd;fill:url(#Layer9_00000106121829567968712390000006880354841904949395_);">
	<!ENTITY st9 "fill-rule:evenodd;clip-rule:evenodd;fill:url(#Layer6_00000124870061034510680020000014989076387999315892_);">
	<!ENTITY st10 "fill-rule:evenodd;clip-rule:evenodd;fill:url(#Layer5_00000116228111726362295410000015585509582123104675_);">
	<!ENTITY st11 "fill-rule:evenodd;clip-rule:evenodd;fill:url(#Layer4_00000151536372982805547760000014129472390728116669_);">
	<!ENTITY st12 "fill-rule:evenodd;clip-rule:evenodd;fill:url(#Layer3_00000034803328191104527550000012795474664405382814_);">
	
		<!ENTITY st13 "fill-rule:evenodd;clip-rule:evenodd;fill:url(#Path-27-Copy_00000137133090345888709520000005238693153194552452_);">
	<!ENTITY st14 "fill-rule:evenodd;clip-rule:evenodd;fill:url(#SVGID_00000090290318169184723180000006941518719078237828_);">
	<!ENTITY st15 "fill-rule:evenodd;clip-rule:evenodd;fill:url(#SVGID_00000160164720493666364530000003423723112090021306_);">
	<!ENTITY st16 "fill-rule:evenodd;clip-rule:evenodd;fill:url(#SVGID_00000002360934764922768400000017229713994303126963_);">
	<!ENTITY st17 "fill-rule:evenodd;clip-rule:evenodd;fill:url(#SVGID_00000083070591003698315870000013352577855182163866_);">
	<!ENTITY st18 "fill-rule:evenodd;clip-rule:evenodd;fill:url(#SVGID_00000009582660639927799680000006255286692476336270_);">
	<!ENTITY st19 "fill-rule:evenodd;clip-rule:evenodd;fill:url(#SVGID_00000008135506815779604110000012401215797282851463_);">
	<!ENTITY st20 "fill-rule:evenodd;clip-rule:evenodd;fill:url(#SVGID_00000109023385808951935810000016732040863741786760_);">
	<!ENTITY st21 "fill-rule:evenodd;clip-rule:evenodd;fill:url(#SVGID_00000040539033504461283500000009351630248558921370_);">
	<!ENTITY st22 "fill-rule:evenodd;clip-rule:evenodd;fill:url(#Layer1_00000108270329287185263690000004064723181316009089_);">
	<!ENTITY st23 "fill-rule:evenodd;clip-rule:evenodd;fill:url(#SVGID_00000132805996054501863670000014085460852992484026_);">
	<!ENTITY st24 "fill-rule:evenodd;clip-rule:evenodd;fill:url(#SVGID_00000150104707440367143590000004341517221690616725_);">
	<!ENTITY st25 "fill-rule:evenodd;clip-rule:evenodd;fill:url(#SVGID_00000126290628852484474560000006842910116330962363_);">
	<!ENTITY st26 "fill-rule:evenodd;clip-rule:evenodd;fill:url(#SVGID_00000019664728944606664230000009301182818211856534_);">
	<!ENTITY st27 "fill-rule:evenodd;clip-rule:evenodd;fill:url(#SVGID_00000087407400084590154330000016510385677142450573_);">
	
		<!ENTITY st28 "fill-rule:evenodd;clip-rule:evenodd;fill:url(#Triangle-Copy-95_00000074425717670016471600000009030539432578930066_);">
	
		<!ENTITY st29 "fill-rule:evenodd;clip-rule:evenodd;fill:url(#Triangle-Copy-98_00000114060312600129887910000008299725382812574637_);">
	
		<!ENTITY st30 "fill-rule:evenodd;clip-rule:evenodd;fill:url(#Triangle-Copy-99_00000124859764057359474510000002577446795162872218_);">
]>
<svg version="1.1" id="Parall" xmlns="http://www.w3.org/2000/svg" xmlns:xlink="http://www.w3.org/1999/xlink" x="0px" y="0px"
	 viewBox="0 0 1045.6 629.8" style="enable-background:new 0 0 1045.6 629.8;" xml:space="preserve">
<g>
	
		<linearGradient id="Layer11_00000102509837690837824020000015444200567546847119_" gradientUnits="userSpaceOnUse" x1="225.4737" y1="2420.4417" x2="225.4799" y2="2420.071" gradientTransform="matrix(962.7739 0 0 -177 -216170.0625 428684.0625)">
		<stop  offset="0" style="stop-color:#AB6C94"/>
		<stop  offset="1" style="stop-color:#EEB7A3"/>
	</linearGradient>
	
		<path id="Layer11_00000147916298138083594400000012118280369095561904_" style="fill-rule:evenodd;clip-rule:evenodd;fill:url(#Layer11_00000102509837690837824020000015444200567546847119_);" d="
		M1129.7,308.8c-3.9,1.3-1.7,7-5.6,5.4c-3.8-1.6-3.8-5.4-9.2-5.4c-5.4,0-6-1.6-13.2,0c-7.2,1.6-12.1,0.1-17.9-1.6
		c-5.7-1.7-11.2-3.2-14.5,0c-3.3,3.2-3.6,6.9-7.1,6.9c-3.6,0-4.9-2.5-7.5,0c-2.6,2.5-6,4.4-11.5,6.9c-5.5,2.4-6.5,2.2-10.9,4.1
		c-4.4,2-3.6,3.1-8.9,3.1c-5.3,0-4.3,1.5-8.8,0c-4.4-1.5-25.8-11.5-29.3-15.5c-3.5-3.9-20-17.9-25.2-17.9c-5.3,0-11.9-5-13.8-6.2
		c-2-1.1-6-1.1-10.9-1.1c-4.9,0-7.6,3.8-10.2,0c-2.7-3.8-1.2-2.3-8,0s-5.1,6.5-11.5,3.8c-6.4-2.7-9.4-1.4-12-3.8
		c-2.6-2.4-4.1-5.5-6.5-3.8c-2.4,1.7-8.3,4.9-11.3,4.9c-3.1,0-3-0.8-7.2,2.7c-4.1,3.5-3,3.6-7.9,5.8c-4.9,2.2-9.1,6.5-14.7,6.5
		c-5.6,0-25.9,17.4-49,17.4c-15.4,0-34.7,7-58,20.9c-74.2,25.6-100.5,38.4-79,38.4c21.5,0,97.2,0,227.1,0c27.3,0,50.3,0,68.9,0
		c27.9,0,194.5,0,205.9,0c7.6,0,14.1,0,19.7,0v-71.5c-5.5-4.7-12.1-5.3-19.7-1.6C1150.5,312.7,1133.7,307.5,1129.7,308.8z"/>
	
		<linearGradient id="Layer10_00000036210684432711101830000007989266521586525084_" gradientUnits="userSpaceOnUse" x1="226.0674" y1="2425.4958" x2="226.0674" y2="2424.9099" gradientTransform="matrix(1093.6403 0 0 -118 -246936.375 286466.7812)">
		<stop  offset="0" style="stop-color:#AB6C94"/>
		<stop  offset="1" style="stop-color:#EEB7A3"/>
	</linearGradient>
	
		<path id="Layer10_00000152942312869491841670000001986257191381630101_" style="fill-rule:evenodd;clip-rule:evenodd;fill:url(#Layer10_00000036210684432711101830000007989266521586525084_);" d="
		M6.1,294.6c12.2,0,19.6,6.8,31.1,0c11.5-6.8,10.9-15.9,23.8-13.1c12.9,2.8,13.4-2.3,31.4,2.8c18,5.1,6.7,5.1,27.1,5.1
		s34.7-5.3,46.6,0c11.9,5.3,7.2-1.9,18.9,8.1c11.7,10.1,46.3-16.3,56.3-11c10,5.3,37.2-14.7,44.7-9.4c7.5,5.3,49.3,19.2,60.4,18.4
		c7.4-0.5,17.6-2.6,30.8-6.1c0.7,1.3,8.4,1.9,23.1,1.9c9,0,17.8-2.3,29.3,0c16.7,3.3,19.9,7.3,27.8,6.2c13.3-1.8,34.7,9.6,48.3,17.6
		c13.6,8,13.5,7.1,23.1,7.1c9.6,0,37.6,5.5,43,10.7c5.4,5.2,17.3,8,28.3,8c7.3,0-190.6,0-593.9,0C-2,310-2,294.6,6.1,294.6z"/>
	
		<g id="Estrelas_00000090974029417229626460000015307084798220432047_" transform="translate(1064.500000, 172.500000) scale(-1, 1) translate(-1064.500000, -172.500000) translate(-79.000000, 0.000000)">
		<path id="Oval-15-Copy_00000076601723534425195320000005859721782757459348_" style="&st4;" d="M1249.2,27.9
			c-0.9,0-1.6,0.7-1.6,1.6c0,0.9,0.7,1.6,1.6,1.6c0.9,0,1.6-0.7,1.6-1.6C1250.8,28.6,1250.1,27.9,1249.2,27.9z"/>
		<path id="Oval-15-Copy-28_00000135663357365636754120000015394892191154700942_" style="&st4;" d="M1181.3,40.8
			c-0.9,0-1.6,0.7-1.6,1.6c0,0.9,0.7,1.6,1.6,1.6c0.9,0,1.6-0.7,1.6-1.6C1182.9,41.6,1182.2,40.8,1181.3,40.8z"/>
		<path id="Oval-15-Copy-79_00000182490244247230883160000003890722149317204394_" style="&st4;" d="M1934.9,71.9
			c-0.9,0-1.6,0.7-1.6,1.6c0,0.9,0.7,1.6,1.6,1.6c0.9,0,1.6-0.7,1.6-1.6C1936.6,72.7,1935.8,71.9,1934.9,71.9z"/>
		
			<ellipse id="Oval-15-Copy-4_00000152253650093395275350000004861079201153416104_" style="&st4;" cx="1202.8" cy="18.5" rx="1.6" ry="-1.6"/>
		<path id="Oval-15-Copy-14_00000000913504480851888910000007860109609639748483_" style="&st4;" d="M1788,27.2
			c-0.9,0-1.6,0.7-1.6,1.6s0.7,1.6,1.6,1.6c0.9,0,1.6-0.7,1.6-1.6S1788.9,27.2,1788,27.2z"/>
		
			<ellipse id="Oval-15-Copy-11_00000074425859976814212140000017873902602212211340_" style="&st5;" cx="1827.2" cy="61.2" rx="1.6" ry="-1.6"/>
		<path id="Oval-15-Copy-82_00000161629429573534623610000017275153029787083143_" style="&st5;" d="M1901.6,114.7
			c-0.9,0-1.6,0.7-1.6,1.6c0,0.9,0.7,1.6,1.6,1.6c0.9,0,1.6-0.7,1.6-1.6C1903.2,115.4,1902.5,114.7,1901.6,114.7z"/>
		
			<ellipse id="Oval-15-Copy-83_00000051343126158681949600000013547831550704483989_" style="&st5;" cx="1365.4" cy="55.4" rx="1.6" ry="-1.6"/>
		<path id="Oval-15-Copy-77_00000020392429048524965710000009389741316766214045_" style="&st5;" d="M1249.2,98.5
			c-0.9,0-1.6,0.7-1.6,1.6c0,0.9,0.7,1.6,1.6,1.6c0.9,0,1.6-0.7,1.6-1.6C1250.8,99.2,1250.1,98.5,1249.2,98.5z"/>
		<path id="Oval-15-Copy-16_00000028289493642710339130000006325562837784942208_" style="&st4;" d="M1288.4,18.1
			c-0.9,0-1.6,0.7-1.6,1.6c0,0.9,0.7,1.6,1.6,1.6s1.6-0.7,1.6-1.6C1290,18.9,1289.3,18.1,1288.4,18.1z"/>
		<path id="Oval-15-Copy-36_00000106833523090287652130000003946361046438248367_" style="&st4;" d="M1439.2,79.1
			c-0.9,0-1.6,0.7-1.6,1.6c0,0.9,0.7,1.6,1.6,1.6s1.6-0.7,1.6-1.6C1440.9,79.8,1440.1,79.1,1439.2,79.1z"/>
		
			<ellipse id="Oval-15-Copy-100_00000172421875855673678750000012772555295196274366_" style="&st4;" cx="1299.5" cy="180.5" rx="1.6" ry="-1.6"/>
		<path id="Oval-15-Copy-27_00000029038600675839526090000014884582367539721390_" style="&st4;" d="M1872.9,51.2
			c-0.9,0-1.6,0.7-1.6,1.6c0,0.9,0.7,1.6,1.6,1.6c0.9,0,1.6-0.7,1.6-1.6C1874.5,51.9,1873.8,51.2,1872.9,51.2z"/>
		<path id="Oval-15-Copy-22_00000114047608692779065730000012933423625336017550_" style="&st4;" d="M1483.6,18.1
			c-0.9,0-1.6,0.7-1.6,1.6c0,0.9,0.7,1.6,1.6,1.6c0.9,0,1.6-0.7,1.6-1.6C1485.3,18.9,1484.5,18.1,1483.6,18.1z"/>
		
			<ellipse id="Oval-15-Copy-19_00000150090822486327524270000017073897074623454597_" style="&st4;" cx="1360.2" cy="24.3" rx="1.6" ry="-1.6"/>
		<path id="Oval-15-Copy-20_00000157273036076323878850000015160133734522020789_" style="&st4;" d="M1287.1,114.7
			c-0.9,0-1.6,0.7-1.6,1.6c0,0.9,0.7,1.6,1.6,1.6s1.6-0.7,1.6-1.6C1288.7,115.4,1288,114.7,1287.1,114.7z"/>
		<path id="Oval-15-Copy-10_00000181806889199004300820000009235600556671445176_" style="&st4;" d="M1911.4,44.7
			c-0.9,0-1.6,0.7-1.6,1.6c0,0.9,0.7,1.6,1.6,1.6s1.6-0.7,1.6-1.6C1913,45.4,1912.3,44.7,1911.4,44.7z"/>
		<path id="Oval-15-Copy-32_00000030452768620252354460000009334787972041091745_" style="&st4;" d="M1257,31.8
			c-0.9,0-1.6,0.7-1.6,1.6c0,0.9,0.7,1.6,1.6,1.6s1.6-0.7,1.6-1.6C1258.7,32.5,1257.9,31.8,1257,31.8z"/>
		<path id="Oval-15-Copy-31_00000075164548768508874120000013388621492320747148_" style="&st4;" d="M1495.4,16.2
			c-0.9,0-1.6,0.7-1.6,1.6c0,0.9,0.7,1.6,1.6,1.6s1.6-0.7,1.6-1.6C1497,16.9,1496.3,16.2,1495.4,16.2z"/>
		<path id="Oval-15-Copy-87_00000099659990810075004460000017283707415033959305_" style="&st6;" d="M1796.5,64.8
			c-0.9,0-1.6,0.7-1.6,1.6s0.7,1.6,1.6,1.6s1.6-0.7,1.6-1.6S1797.4,64.8,1796.5,64.8z"/>
		<path id="Oval-15-Copy-97_00000175284802864087941290000014139365051759531959_" style="&st6;" d="M2205.3,64.8
			c-0.9,0-1.6,0.7-1.6,1.6s0.7,1.6,1.6,1.6c0.9,0,1.6-0.7,1.6-1.6S2206.2,64.8,2205.3,64.8z"/>
		<path id="Oval-15-Copy-96_00000168825291735829722930000003589100435474491269_" style="&st6;" d="M2180.5,130.9
			c-0.9,0-1.6,0.7-1.6,1.6s0.7,1.6,1.6,1.6c0.9,0,1.6-0.7,1.6-1.6S2181.4,130.9,2180.5,130.9z"/>
		<path id="Oval-15-Copy-33_00000095329619191212276670000003807211473244055188_" style="&st4;" d="M1178.7,98.5
			c-0.9,0-1.6,0.7-1.6,1.6c0,0.9,0.7,1.6,1.6,1.6c0.9,0,1.6-0.7,1.6-1.6C1180.3,99.2,1179.6,98.5,1178.7,98.5z"/>
		
			<ellipse id="Oval-15-Copy-26_00000040572553417804283480000001027026896462626737_" style="&st4;" cx="1195.6" cy="130.6" rx="1.6" ry="-1.6"/>
		<path id="Oval-15-Copy-12_00000040556728686477545330000010672028295726461868_" style="&st4;" d="M1742.3,19.4
			c-0.9,0-1.6,0.7-1.6,1.6c0,0.9,0.7,1.6,1.6,1.6s1.6-0.7,1.6-1.6C1743.9,20.2,1743.2,19.4,1742.3,19.4z"/>
		<path id="Oval-15-Copy-13_00000004518037863116894910000009371395040861088691_" style="&st4;" d="M1190.4,96.6
			c-0.9,0-1.6,0.7-1.6,1.6s0.7,1.6,1.6,1.6c0.9,0,1.6-0.7,1.6-1.6S1191.3,96.6,1190.4,96.6z"/>
		
			<ellipse id="Oval-15-Copy-86_00000067921621003378019720000002051464692695721658_" style="&st4;" cx="1247.2" cy="57.4" rx="1.6" ry="-1.6"/>
		<path id="Oval-15-Copy-9_00000143584893514898864790000016737086645311004544_" style="&st4;" d="M1428.1,31.8
			c-0.9,0-1.6,0.7-1.6,1.6c0,0.9,0.7,1.6,1.6,1.6s1.6-0.7,1.6-1.6C1429.8,32.5,1429,31.8,1428.1,31.8z"/>
		
			<ellipse id="Oval-15-Copy-2_00000131356361436983061580000004649521252774435213_" style="&st4;" cx="1856.5" cy="51.5" rx="1.6" ry="-1.6"/>
		
			<ellipse id="Oval-15-Copy-29_00000047747508073682207940000008240933349186742449_" style="&st4;" cx="1680.2" cy="53.5" rx="1.6" ry="-1.6"/>
		<path id="Oval-15-Copy-3_00000106826887744616209500000015755613220889480879_" style="&st4;" d="M1560.7,123.8
			c-0.9,0-1.6,0.7-1.6,1.6c0,0.9,0.7,1.6,1.6,1.6c0.9,0,1.6-0.7,1.6-1.6C1562.3,124.5,1561.6,123.8,1560.7,123.8z"/>
		<ellipse style="&st4;" cx="1797.1" cy="32.1" rx="1.6" ry="-1.6"/>
		<path style="&st4;" d="M1345.2,87.5c0.9,0,1.6,0.7,1.6,1.6c0,0.9-0.7,1.6-1.6,1.6s-1.6-0.7-1.6-1.6
			C1343.6,88.2,1344.3,87.5,1345.2,87.5z"/>
		
			<ellipse id="Oval-15-Copy-92_00000145766192276590292300000015351468774077830291_" style="&st4;" cx="1195.6" cy="187.6" rx="1.6" ry="-1.6"/>
		<path id="Oval-15-Copy-15_00000124161361446437135170000010617964154105424806_" style="&st4;" d="M2079.9,79.1
			c0.9,0,1.6,0.7,1.6,1.6c0,0.9-0.7,1.6-1.6,1.6c-0.9,0-1.6-0.7-1.6-1.6C2078.3,79.8,2079,79.1,2079.9,79.1z"/>
		<ellipse style="&st4;" cx="2085.1" cy="128" rx="1.6" ry="-1.6"/>
		<path id="Oval-15-Copy-34_00000100356773706025434440000012145815701293203609_" style="&st4;" d="M2200.7,9.1
			c0.9,0,1.6,0.7,1.6,1.6c0,0.9-0.7,1.6-1.6,1.6c-0.9,0-1.6-0.7-1.6-1.6C2199.1,9.8,2199.8,9.1,2200.7,9.1z"/>
		<path id="Oval-15-Copy-5_00000105392203429187083360000003138484179452666780_" style="&st4;" d="M2163.5,27.9
			c0.9,0,1.6,0.7,1.6,1.6c0,0.9-0.7,1.6-1.6,1.6c-0.9,0-1.6-0.7-1.6-1.6C2161.9,28.6,2162.6,27.9,2163.5,27.9z"/>
		<path id="Oval-15-Copy-7_00000135664897666232535920000000408526456137397660_" style="&st4;" d="M2138,60.9
			c0.9,0,1.6,0.7,1.6,1.6c0,0.9-0.7,1.6-1.6,1.6c-0.9,0-1.6-0.7-1.6-1.6C2136.4,61.7,2137.1,60.9,2138,60.9z"/>
		
			<ellipse id="Oval-15-Copy-98_00000081610853185705835940000003229980033795728768_" style="&st4;" cx="2141.3" cy="164.9" rx="1.6" ry="-1.6"/>
		
			<ellipse id="Oval-15-Copy-8_00000008859551026072934650000002199881961242888079_" style="&st4;" cx="1574.4" cy="24.3" rx="1.6" ry="-1.6"/>
		<ellipse style="&st4;" cx="2055.7" cy="118.9" rx="1.6" ry="-1.6"/>
		<path style="&st4;" d="M2082.5,79.1c0.9,0,1.6,0.7,1.6,1.6c0,0.9-0.7,1.6-1.6,1.6s-1.6-0.7-1.6-1.6
			C2080.9,79.8,2081.6,79.1,2082.5,79.1z"/>
		<path id="Oval-15-Copy-88_00000008128302903134265430000000389747861930382213_" style="&st4;" d="M2109.9,10.4
			c0.9,0,1.6,0.7,1.6,1.6c0,0.9-0.7,1.6-1.6,1.6c-0.9,0-1.6-0.7-1.6-1.6C2108.3,11.1,2109,10.4,2109.9,10.4z"/>
		<path style="&st4;" d="M2096.2,136.8c0.9,0,1.6,0.7,1.6,1.6s-0.7,1.6-1.6,1.6c-0.9,0-1.6-0.7-1.6-1.6S2095.3,136.8,2096.2,136.8z"
			/>
		<path id="Oval-15-Copy-99_00000105425751060594827100000001086594698149698997_" style="&st4;" d="M1340,129.6
			c0.9,0,1.6,0.7,1.6,1.6c0,0.9-0.7,1.6-1.6,1.6c-0.9,0-1.6-0.7-1.6-1.6C1338.3,130.4,1339.1,129.6,1340,129.6z"/>
		<path id="Oval-15-Copy-81_00000058582059973081221860000011007328469250996914_" style="&st4;" d="M2177.9,86.8
			c0.9,0,1.6,0.7,1.6,1.6s-0.7,1.6-1.6,1.6s-1.6-0.7-1.6-1.6S2177,86.8,2177.9,86.8z"/>
		<path id="Oval-15-Copy-37_00000114046611295182157450000013156290724615307188_" style="&st4;" d="M2017.2,70
			c0.9,0,1.6,0.7,1.6,1.6c0,0.9-0.7,1.6-1.6,1.6s-1.6-0.7-1.6-1.6C2015.6,70.7,2016.3,70,2017.2,70z"/>
		<path style="&st4;" d="M1957.1,152.3c0.9,0,1.6,0.7,1.6,1.6s-0.7,1.6-1.6,1.6c-0.9,0-1.6-0.7-1.6-1.6S1956.2,152.3,1957.1,152.3z"
			/>
		
			<ellipse id="Oval-15-Copy-23_00000057130895130016876500000006502664988383805324_" style="&st4;" cx="1941.4" cy="128" rx="1.6" ry="-1.6"/>
		<path id="Oval-15-Copy-24_00000005966078532428311640000007450257003889318589_" style="&st4;" d="M1968.9,127.7
			c0.9,0,1.6,0.7,1.6,1.6c0,0.9-0.7,1.6-1.6,1.6s-1.6-0.7-1.6-1.6C1967.2,128.4,1968,127.7,1968.9,127.7z"/>
		<path id="Oval-15-Copy-17_00000180337552474704606110000007265770143714508734_" style="&st4;" d="M1384.4,62.2
			c0.9,0,1.6,0.7,1.6,1.6c0,0.9-0.7,1.6-1.6,1.6s-1.6-0.7-1.6-1.6C1382.7,62.9,1383.5,62.2,1384.4,62.2z"/>
		
			<ellipse id="Oval-15-Copy-101_00000106118785839728811690000007035833275706360241_" style="&st4;" cx="1299.5" cy="61.2" rx="1.6" ry="-1.6"/>
		
			<ellipse id="Oval-15-Copy-18_00000159471368108847436300000001464308537648301498_" style="&st4;" cx="1385" cy="1.6" rx="1.6" ry="-1.6"/>
		<ellipse style="&st4;" cx="1885.9" cy="24.3" rx="1.6" ry="-1.6"/>
		<path style="&st4;" d="M1798.4,114.7c0.9,0,1.6,0.7,1.6,1.6c0,0.9-0.7,1.6-1.6,1.6s-1.6-0.7-1.6-1.6
			C1796.8,115.4,1797.5,114.7,1798.4,114.7z"/>
		<ellipse style="&st4;" cx="1601.2" cy="9.4" rx="1.6" ry="-1.6"/>
		
			<ellipse id="Oval-15-Copy-38_00000039843758563427789570000007874221547410397056_" style="&st4;" cx="2068.8" cy="61.2" rx="1.6" ry="-1.6"/>
		<path id="Oval-15-Copy-30_00000093856026648569674100000002926751219218578846_" style="&st4;" d="M2019.8,35
			c0.9,0,1.6,0.7,1.6,1.6c0,0.9-0.7,1.6-1.6,1.6s-1.6-0.7-1.6-1.6C2018.2,35.7,2018.9,35,2019.8,35z"/>
		<path id="Oval-15-Copy-89_00000098223038731620566030000009633776807110016902_" style="&st4;" d="M1977.4,94.6
			c0.9,0,1.6,0.7,1.6,1.6c0,0.9-0.7,1.6-1.6,1.6c-0.9,0-1.6-0.7-1.6-1.6C1975.7,95.4,1976.5,94.6,1977.4,94.6z"/>
		<path id="Oval-15-Copy-39_00000116200172055215669300000014594027243295866285_" style="&st4;" d="M1874.2,10.4
			c0.9,0,1.6,0.7,1.6,1.6c0,0.9-0.7,1.6-1.6,1.6c-0.9,0-1.6-0.7-1.6-1.6C1872.5,11.1,1873.3,10.4,1874.2,10.4z"/>
		<path style="&st4;" d="M1906.8,98.5c0.9,0,1.6,0.7,1.6,1.6c0,0.9-0.7,1.6-1.6,1.6s-1.6-0.7-1.6-1.6
			C1905.2,99.2,1905.9,98.5,1906.8,98.5z"/>
		<path id="Oval-15-Copy-40_00000034779735829626644140000012542995480010657714_" style="&st4;" d="M2032.9,141.3
			c0.9,0,1.6,0.7,1.6,1.6c0,0.9-0.7,1.6-1.6,1.6s-1.6-0.7-1.6-1.6C2031.2,142,2032,141.3,2032.9,141.3z"/>
		<path style="&st4;" d="M1890.5,129c0.9,0,1.6,0.7,1.6,1.6c0,0.9-0.7,1.6-1.6,1.6s-1.6-0.7-1.6-1.6
			C1888.9,129.7,1889.6,129,1890.5,129z"/>
		
			<ellipse id="Oval-15-Copy-90_00000134237617265998208080000010315969864055750575_" style="&st4;" cx="1737.7" cy="157.2" rx="1.6" ry="-1.6"/>
		
			<ellipse id="Oval-15-Copy-25_00000172423360515024437960000011090433331533879695_" style="&st4;" cx="2008.7" cy="39.9" rx="1.6" ry="-1.6"/>
		<path style="&st4;" d="M1663.2,60.3c0.9,0,1.6,0.7,1.6,1.6c0,0.9-0.7,1.6-1.6,1.6c-0.9,0-1.6-0.7-1.6-1.6
			C1661.6,61,1662.3,60.3,1663.2,60.3z"/>
		<path id="Oval-15-Copy-35_00000066506687712724362040000010761798026784245899_" style="&st7;" d="M1343.2,68.1
			c0.9,0,1.6,0.7,1.6,1.6c0,0.9-0.7,1.6-1.6,1.6c-0.9,0-1.6-0.7-1.6-1.6C1341.6,68.8,1342.3,68.1,1343.2,68.1z"/>
		<path id="Oval-15-Copy-95_00000097471993479268362940000011697042487969201032_" style="&st7;" d="M1867.7,176.9
			c0.9,0,1.6,0.7,1.6,1.6c0,0.9-0.7,1.6-1.6,1.6c-0.9,0-1.6-0.7-1.6-1.6C1866,177.7,1866.7,176.9,1867.7,176.9z"/>
		
			<ellipse id="Oval-15-Copy-102_00000130646056125850882230000012820422640565908886_" style="&st7;" cx="1412.5" cy="151.3" rx="1.6" ry="-1.6"/>
		<path style="&st4;" d="M1632.5,27.2c0.9,0,1.6,0.7,1.6,1.6s-0.7,1.6-1.6,1.6c-0.9,0-1.6-0.7-1.6-1.6S1631.6,27.2,1632.5,27.2z"/>
		<path style="&st4;" d="M1170.2,24c0.9,0,1.6,0.7,1.6,1.6c0,0.9-0.7,1.6-1.6,1.6c-0.9,0-1.6-0.7-1.6-1.6
			C1168.5,24.7,1169.3,24,1170.2,24z"/>
		<path style="&st4;" d="M1672.4,68.1c0.9,0,1.6,0.7,1.6,1.6c0,0.9-0.7,1.6-1.6,1.6s-1.6-0.7-1.6-1.6
			C1670.7,68.8,1671.5,68.1,1672.4,68.1z"/>
		<path style="&st4;" d="M1825.9,123.8c0.9,0,1.6,0.7,1.6,1.6c0,0.9-0.7,1.6-1.6,1.6c-0.9,0-1.6-0.7-1.6-1.6
			C1824.2,124.5,1825,123.8,1825.9,123.8z"/>
		<path id="Oval-15-Copy-91_00000133528130480387626990000014684628026353686204_" style="&st4;" d="M1380.5,158.8
			c0.9,0,1.6,0.7,1.6,1.6s-0.7,1.6-1.6,1.6s-1.6-0.7-1.6-1.6S1379.6,158.8,1380.5,158.8z"/>
	</g>
</g>
</svg>
