<?xml version="1.0" encoding="utf-8"?>
<!-- Generator: Adobe Illustrator 27.5.0, SVG Export Plug-In . SVG Version: 6.00 Build 0)  -->
<!DOCTYPE svg PUBLIC "-//W3C//DTD SVG 1.1//EN" "http://www.w3.org/Graphics/SVG/1.1/DTD/svg11.dtd" [
	<!ENTITY st0 "fill-rule:evenodd;clip-rule:evenodd;fill:url(#BG_00000000199983363403258870000007811741699868788896_);">
	<!ENTITY st1 "fill-rule:evenodd;clip-rule:evenodd;fill:url(#SVGID_1_);">
	<!ENTITY st2 "fill-rule:evenodd;clip-rule:evenodd;fill:url(#Layer11_00000156561613211585964440000006430668696885755546_);">
	<!ENTITY st3 "fill-rule:evenodd;clip-rule:evenodd;fill:url(#Layer10_00000044145707075574915890000003919819114598246559_);">
	<!ENTITY st4 "opacity:0.2024;fill-rule:evenodd;clip-rule:evenodd;fill:#FFFFFF;enable-background:new    ;">
	<!ENTITY st5 "opacity:0.5135;fill-rule:evenodd;clip-rule:evenodd;fill:#FFFFFF;enable-background:new    ;">
	<!ENTITY st6 "opacity:0.6668;fill-rule:evenodd;clip-rule:evenodd;fill:#FFFFFF;enable-background:new    ;">
	<!ENTITY st7 "opacity:0.5414;fill-rule:evenodd;clip-rule:evenodd;fill:#FFFFFF;enable-background:new    ;">
	<!ENTITY st8 "fill-rule:evenodd;clip-rule:evenodd;fill:url(#Layer9_00000173861345936343250530000008380534621350176909_);">
	<!ENTITY st9 "fill-rule:evenodd;clip-rule:evenodd;fill:url(#Layer6_00000103946447829581443780000006645834747798592689_);">
	<!ENTITY st10 "fill-rule:evenodd;clip-rule:evenodd;fill:url(#Layer5_00000168799637487024981370000009380551741905631104_);">
	<!ENTITY st11 "fill-rule:evenodd;clip-rule:evenodd;fill:url(#Layer4_00000057148535812172997830000008451281318503215795_);">
	<!ENTITY st12 "fill-rule:evenodd;clip-rule:evenodd;fill:url(#Layer3_00000011007399638106972980000015046091162771601564_);">
	
		<!ENTITY st13 "fill-rule:evenodd;clip-rule:evenodd;fill:url(#Path-27-Copy_00000178911564419650526370000011439685399729830846_);">
	<!ENTITY st14 "fill-rule:evenodd;clip-rule:evenodd;fill:url(#SVGID_00000039840842649361678490000009488962576605411217_);">
	<!ENTITY st15 "fill-rule:evenodd;clip-rule:evenodd;fill:url(#SVGID_00000160183285936718725590000016475990682381623716_);">
	<!ENTITY st16 "fill-rule:evenodd;clip-rule:evenodd;fill:url(#SVGID_00000060011651593672788210000018400943471291866508_);">
	<!ENTITY st17 "fill-rule:evenodd;clip-rule:evenodd;fill:url(#SVGID_00000004517770196947573890000000135637264689969038_);">
	<!ENTITY st18 "fill-rule:evenodd;clip-rule:evenodd;fill:url(#SVGID_00000124866086469865735520000013335143942657475253_);">
	<!ENTITY st19 "fill-rule:evenodd;clip-rule:evenodd;fill:url(#SVGID_00000140721670774450419780000008315072916979892653_);">
	<!ENTITY st20 "fill-rule:evenodd;clip-rule:evenodd;fill:url(#SVGID_00000153674515773161816710000017449039188388216222_);">
	<!ENTITY st21 "fill-rule:evenodd;clip-rule:evenodd;fill:url(#SVGID_00000034803862239205908600000012605313530531855283_);">
	<!ENTITY st22 "fill-rule:evenodd;clip-rule:evenodd;fill:url(#Layer1_00000160910092052983419660000000147331287279381390_);">
	<!ENTITY st23 "fill-rule:evenodd;clip-rule:evenodd;fill:url(#SVGID_00000177474368624032186890000005078064691399798656_);">
	<!ENTITY st24 "fill-rule:evenodd;clip-rule:evenodd;fill:url(#SVGID_00000015317428089720762770000002875094512258037693_);">
	<!ENTITY st25 "fill-rule:evenodd;clip-rule:evenodd;fill:url(#SVGID_00000002378449782935422470000004042901089766441398_);">
	<!ENTITY st26 "fill-rule:evenodd;clip-rule:evenodd;fill:url(#SVGID_00000117673717504888126730000004880654941768943537_);">
	<!ENTITY st27 "fill-rule:evenodd;clip-rule:evenodd;fill:url(#SVGID_00000155828641148024810690000004039594480959533225_);">
	
		<!ENTITY st28 "fill-rule:evenodd;clip-rule:evenodd;fill:url(#Triangle-Copy-95_00000128485435359713929840000011135699104349714067_);">
	
		<!ENTITY st29 "fill-rule:evenodd;clip-rule:evenodd;fill:url(#Triangle-Copy-98_00000103225323994927067040000007650040490431660687_);">
	
		<!ENTITY st30 "fill-rule:evenodd;clip-rule:evenodd;fill:url(#Triangle-Copy-99_00000094580070222168801870000011439101563712935092_);">
]>
<svg version="1.1" id="Parall" xmlns="http://www.w3.org/2000/svg" xmlns:xlink="http://www.w3.org/1999/xlink" x="0px" y="0px"
	 viewBox="0 0 1045.6 629.8" style="enable-background:new 0 0 1045.6 629.8;" xml:space="preserve">
<g>
	
		<linearGradient id="Layer1_00000067226024831137811950000006867091726743950001_" gradientUnits="userSpaceOnUse" x1="226.1782" y1="-942.6002" x2="226.1799" y2="-942.033" gradientTransform="matrix(1922 0 0 -413 -434189 -388650.3438)">
		<stop  offset="0" style="stop-color:#3A304F"/>
		<stop  offset="0.4037" style="stop-color:#3F424C"/>
		<stop  offset="1" style="stop-color:#73586C"/>
	</linearGradient>
	
		<path id="Layer1_00000005986433746032277810000001672382672813642394_" style="fill-rule:evenodd;clip-rule:evenodd;fill:url(#Layer1_00000067226024831137811950000006867091726743950001_);" d="
		M0,635.8h1054.3v-13.3c-4.6,1.8-10.1,1.8-16.3,0c-6.3-1.8-19.9-5.8-41-12.1c-14-2.8-24.9-3.6-32.6-2.1c-11.6,2.1-21,0-26.7,0
		c-5.7,0-12.5-3.5-15.2-3.5c-1.8,0-4.7,0-8.5,0c-7.4-5-11.1-7.4-11.1-7.4s-4.2,0-5.3-1.2c-1.2-1.2-1.7-6.9-4.9-6.9
		c-3.1,0-2.8-2.8-6.5-3.8c-3.7-1-9-6.2-13.9-3.7c-4.8,2.5-13.2,1.9-16.6,1c-3.3-1-5.5,1.9-8.7,1.9c-3.1,0-15.2-1.4-22.4,0.9
		c-7.2,2.2-9.4,1.3-9.4,1.3s1.8-3-2.9-2.1c-4.6,0.9-6.8,0.9-8.7,0.9c-1.9,0-4.3-3.7-11.6-3.7c-4.9,0-9.6-1.9-14.3-5.6l-31-14.4
		c-8.6-3.3-14-5.8-16.1-7.6c-3.1-2.6-9-3.6-13.1-3.6c-4.1,0-11.4,0-13,0c-1.6,0-15.3-7.1-26.3-4.2c-7.3,1.9-21.3,2.3-41.9,1.1
		c-3-0.8-7.9-0.8-14.7,0c-6.8,0.8-13.4,2.7-19.6,5.6c-4.1,2.3-7.5,3.4-10.1,3.4c-3.9,0-10-1.8-17.2,3c-7.2,4.8-39,11.2-42.1,12.5
		c-3.2,1.2-3.6,0.5-7,2.4c-3.3,1.8-7.2,4.5-12.4,3.2c-5.2-1.3-5.7-4.4-13.3-4.4c-5.1,0-9.7,0.4-13.8,1.2c-5.2,1.6-9.5,1.6-13.1,0
		c-5.4-2.4-10.2-1.8-14.4,0c-4.2,1.8-6,3.2-10.8,3.2c-4.9,0-35.8-10-41.3-12.9c-5.5-2.9-9.6,1-14.6-2.9c-5-3.9-7.3-7.6-14.2-7.6
		c-6.9,0-49.5-28.6-65.3-30.7c-15.9-2-22-2.8-28-6.5c-6.1-3.7-15.8-12.9-26.9-15.6c-11.1-2.7-13.5-3.6-20.8-9.8
		c-3.8-3.2-15.2-7.3-23.6-11.5c-7.9-4-12.4-8-23.8-10.8c-13.1-3.2-16-7.1-26.2-9.7c-29.7-7.4-67.5-21.6-80.7-24.4
		c-13.3-2.8-34.8-15.6-42.4-18c-7.7-2.4-11.4-7.7-21.3-7.7c-9.9,0-7.3-1.7-12.1,1.7c-3.2,2.2-5.4,4.9-6.6,7.9V635.8z"/>
</g>
</svg>
