<?xml version="1.0" encoding="utf-8"?>
<!-- Generator: Adobe Illustrator 27.5.0, SVG Export Plug-In . SVG Version: 6.00 Build 0)  -->
<!DOCTYPE svg PUBLIC "-//W3C//DTD SVG 1.1//EN" "http://www.w3.org/Graphics/SVG/1.1/DTD/svg11.dtd" [
	<!ENTITY st0 "fill-rule:evenodd;clip-rule:evenodd;fill:url(#BG_00000041288429135157790340000007580933256883632547_);">
	<!ENTITY st1 "fill-rule:evenodd;clip-rule:evenodd;fill:url(#SVGID_1_);">
	<!ENTITY st2 "fill-rule:evenodd;clip-rule:evenodd;fill:url(#Layer11_00000087405615033972216040000015683947133812307600_);">
	<!ENTITY st3 "fill-rule:evenodd;clip-rule:evenodd;fill:url(#Layer10_00000097460009951431974880000004267350429291770524_);">
	<!ENTITY st4 "opacity:0.2024;fill-rule:evenodd;clip-rule:evenodd;fill:#FFFFFF;enable-background:new    ;">
	<!ENTITY st5 "opacity:0.5135;fill-rule:evenodd;clip-rule:evenodd;fill:#FFFFFF;enable-background:new    ;">
	<!ENTITY st6 "opacity:0.6668;fill-rule:evenodd;clip-rule:evenodd;fill:#FFFFFF;enable-background:new    ;">
	<!ENTITY st7 "opacity:0.5414;fill-rule:evenodd;clip-rule:evenodd;fill:#FFFFFF;enable-background:new    ;">
	<!ENTITY st8 "fill-rule:evenodd;clip-rule:evenodd;fill:url(#Layer9_00000119092433411640911910000002304760109493656206_);">
	<!ENTITY st9 "fill-rule:evenodd;clip-rule:evenodd;fill:url(#Layer6_00000151533661551790436600000005087407888743222415_);">
	<!ENTITY st10 "fill-rule:evenodd;clip-rule:evenodd;fill:url(#Layer5_00000147216970225518404080000002025393543325211836_);">
	<!ENTITY st11 "fill-rule:evenodd;clip-rule:evenodd;fill:url(#Layer4_00000020393002231267371080000016583504927439622790_);">
	<!ENTITY st12 "fill-rule:evenodd;clip-rule:evenodd;fill:url(#Layer3_00000165205697383286900210000013274446677722937510_);">
	
		<!ENTITY st13 "fill-rule:evenodd;clip-rule:evenodd;fill:url(#Path-27-Copy_00000161633915670425248510000008117303749894555268_);">
	<!ENTITY st14 "fill-rule:evenodd;clip-rule:evenodd;fill:url(#SVGID_00000162348966542421739690000010009816627516405933_);">
	<!ENTITY st15 "fill-rule:evenodd;clip-rule:evenodd;fill:url(#SVGID_00000124162196353316390070000016096526952970820264_);">
	<!ENTITY st16 "fill-rule:evenodd;clip-rule:evenodd;fill:url(#SVGID_00000003798798573703669090000012157408463155590576_);">
	<!ENTITY st17 "fill-rule:evenodd;clip-rule:evenodd;fill:url(#SVGID_00000150098187368376494820000009418585394371960488_);">
	<!ENTITY st18 "fill-rule:evenodd;clip-rule:evenodd;fill:url(#SVGID_00000132086947022262114280000000602046524849607586_);">
	<!ENTITY st19 "fill-rule:evenodd;clip-rule:evenodd;fill:url(#SVGID_00000027606036656803889680000013287236093404713116_);">
	<!ENTITY st20 "fill-rule:evenodd;clip-rule:evenodd;fill:url(#SVGID_00000170264999804231772320000011435199228380925580_);">
	<!ENTITY st21 "fill-rule:evenodd;clip-rule:evenodd;fill:url(#SVGID_00000141445770401085523730000011205329848854025397_);">
	<!ENTITY st22 "fill-rule:evenodd;clip-rule:evenodd;fill:url(#Layer1_00000133490865426696718820000013292273765600378553_);">
	<!ENTITY st23 "fill-rule:evenodd;clip-rule:evenodd;fill:url(#SVGID_00000137825579990817061930000011057457047407053219_);">
	<!ENTITY st24 "fill-rule:evenodd;clip-rule:evenodd;fill:url(#SVGID_00000148643427882961835990000005715836449348274101_);">
	<!ENTITY st25 "fill-rule:evenodd;clip-rule:evenodd;fill:url(#SVGID_00000026877236948921232700000005274501803606392503_);">
	<!ENTITY st26 "fill-rule:evenodd;clip-rule:evenodd;fill:url(#SVGID_00000137824524995633459390000008572377537936418982_);">
	<!ENTITY st27 "fill-rule:evenodd;clip-rule:evenodd;fill:url(#SVGID_00000085938613143611227820000005578782624337548974_);">
	
		<!ENTITY st28 "fill-rule:evenodd;clip-rule:evenodd;fill:url(#Triangle-Copy-95_00000138543431132520754690000002818316434653013128_);">
	
		<!ENTITY st29 "fill-rule:evenodd;clip-rule:evenodd;fill:url(#Triangle-Copy-98_00000119108619067767191420000009009484127814800810_);">
	
		<!ENTITY st30 "fill-rule:evenodd;clip-rule:evenodd;fill:url(#Triangle-Copy-99_00000168798634019033152420000014299806357642773651_);">
]>
<svg version="1.1" id="Parall" xmlns="http://www.w3.org/2000/svg" xmlns:xlink="http://www.w3.org/1999/xlink" x="0px" y="0px"
	 viewBox="0 0 1045.6 629.8" style="enable-background:new 0 0 1045.6 629.8;" xml:space="preserve">
<g>
	
		<linearGradient id="Layer3_00000183963569103916617960000011393249477136112042_" gradientUnits="userSpaceOnUse" x1="226.1266" y1="400.7636" x2="226.1266" y2="400.396" gradientTransform="matrix(1973 0 0 -432.0001 -445527 173505.625)">
		<stop  offset="0" style="stop-color:#3A304F"/>
		<stop  offset="0.2208" style="stop-color:#474D5F"/>
		<stop  offset="1" style="stop-color:#84657C"/>
	</linearGradient>
	
		<path id="Layer3_00000103263177610635318760000013489490818152115117_" style="fill-rule:evenodd;clip-rule:evenodd;fill:url(#Layer3_00000183963569103916617960000011393249477136112042_);" d="
		M1161.9,418.3c-10.9,12-27.8,16.8-50.6,14.4c-34.2-3.6-78.8-10.1-104.3-10.1c-25.6,0-44.9,5.8-48.9,5.8c-4,0-11.6-9-17.7-5.8
		c-4,2.1-10.1,5.5-18.3,10.1c1-2.5-3.7-4.8-14-6.9c-15.5-3.2-25.1,0-40.9,2.6c-15.8,2.6-25.1-7.5-34.7-7.5c-6.4,0-18.8,0-37.3,0
		c-4.9-4.1-12.3-6.2-22.3-6.2c-15.1,0-26.9-4.7-31.4-4.7c-4.5,0-10-6-15.1-6c-3.4,0-11-0.9-22.9-2.8c-14.7-6.2-26.6-7.8-35.9-4.7
		c-13.9,4.7-6.7-2.9-28.6,6c-21.9,8.9-19.1,11.4-28.4,12.9c-9.3,1.4-13.8,5.5-16,5.5c-1.5,0-12.9,4.8-34.3,14.4
		c-10.8,9.3-19.8,15.6-26.8,18.9c-10.5,4.9-30.1,9.9-50.3,12.1c-13.5,1.5-24.8,3.4-33.8,5.8c-71.7,20.1-121.9,31.3-150.6,33.6
		c-43.1,3.5-69.7,18.2-87.5,18.2c-17.8,0-17.3,10.9-32.9,15.3c-10.4,2.9-43.3,33.8-98.9,92.7h1082.1L1161.9,418.3z"/>
</g>
</svg>
