<?xml version="1.0" encoding="utf-8"?>
<!-- Generator: Adobe Illustrator 27.5.0, SVG Export Plug-In . SVG Version: 6.00 Build 0)  -->
<!DOCTYPE svg PUBLIC "-//W3C//DTD SVG 1.1//EN" "http://www.w3.org/Graphics/SVG/1.1/DTD/svg11.dtd" [
	<!ENTITY st0 "fill-rule:evenodd;clip-rule:evenodd;fill:url(#BG_00000153703987792945034230000006176279741430439603_);">
	<!ENTITY st1 "fill-rule:evenodd;clip-rule:evenodd;fill:url(#SVGID_1_);">
	<!ENTITY st2 "fill-rule:evenodd;clip-rule:evenodd;fill:url(#Layer11_00000147211112686407173030000005578110475495921795_);">
	<!ENTITY st3 "fill-rule:evenodd;clip-rule:evenodd;fill:url(#Layer10_00000013158220698500830300000001597194167782055581_);">
	<!ENTITY st4 "opacity:0.2024;fill-rule:evenodd;clip-rule:evenodd;fill:#FFFFFF;enable-background:new    ;">
	<!ENTITY st5 "opacity:0.5135;fill-rule:evenodd;clip-rule:evenodd;fill:#FFFFFF;enable-background:new    ;">
	<!ENTITY st6 "opacity:0.6668;fill-rule:evenodd;clip-rule:evenodd;fill:#FFFFFF;enable-background:new    ;">
	<!ENTITY st7 "opacity:0.5414;fill-rule:evenodd;clip-rule:evenodd;fill:#FFFFFF;enable-background:new    ;">
	<!ENTITY st8 "fill-rule:evenodd;clip-rule:evenodd;fill:url(#Layer9_00000163756612480761829430000004640691412359840681_);">
	<!ENTITY st9 "fill-rule:evenodd;clip-rule:evenodd;fill:url(#Layer6_00000019674408524020040400000000755690375130964145_);">
	<!ENTITY st10 "fill-rule:evenodd;clip-rule:evenodd;fill:url(#Layer5_00000065047418572367507930000003093445420302129807_);">
	<!ENTITY st11 "fill-rule:evenodd;clip-rule:evenodd;fill:url(#Layer4_00000079461312839246335520000008497043848464956862_);">
	<!ENTITY st12 "fill-rule:evenodd;clip-rule:evenodd;fill:url(#Layer3_00000083799164279464613230000017821687760714222522_);">
	
		<!ENTITY st13 "fill-rule:evenodd;clip-rule:evenodd;fill:url(#Path-27-Copy_00000156570759729777549530000012996563002088654224_);">
	<!ENTITY st14 "fill-rule:evenodd;clip-rule:evenodd;fill:url(#SVGID_00000180345234839733369700000008042675586238485904_);">
	<!ENTITY st15 "fill-rule:evenodd;clip-rule:evenodd;fill:url(#SVGID_00000080886516963395313490000005751749488591204019_);">
	<!ENTITY st16 "fill-rule:evenodd;clip-rule:evenodd;fill:url(#SVGID_00000028288169773819710660000007603165440671326108_);">
	<!ENTITY st17 "fill-rule:evenodd;clip-rule:evenodd;fill:url(#SVGID_00000067225380679437722160000013914665216081071520_);">
	<!ENTITY st18 "fill-rule:evenodd;clip-rule:evenodd;fill:url(#SVGID_00000099643756228857445950000005952278542047937672_);">
	<!ENTITY st19 "fill-rule:evenodd;clip-rule:evenodd;fill:url(#SVGID_00000150081764003722206570000009823425535817961398_);">
	<!ENTITY st20 "fill-rule:evenodd;clip-rule:evenodd;fill:url(#SVGID_00000023984553178177736940000015180772971170218663_);">
	<!ENTITY st21 "fill-rule:evenodd;clip-rule:evenodd;fill:url(#SVGID_00000090994857717986848620000001562091366775102395_);">
	<!ENTITY st22 "fill-rule:evenodd;clip-rule:evenodd;fill:url(#Layer1_00000057143081224243777040000011916988971434900881_);">
	<!ENTITY st23 "fill-rule:evenodd;clip-rule:evenodd;fill:url(#SVGID_00000138549064034857430200000007069057069181324198_);">
	<!ENTITY st24 "fill-rule:evenodd;clip-rule:evenodd;fill:url(#SVGID_00000008112198217825262210000002812674927805276574_);">
	<!ENTITY st25 "fill-rule:evenodd;clip-rule:evenodd;fill:url(#SVGID_00000000222776560577380500000005194183087238318508_);">
	<!ENTITY st26 "fill-rule:evenodd;clip-rule:evenodd;fill:url(#SVGID_00000114058681404792139080000009375729504203712404_);">
	<!ENTITY st27 "fill-rule:evenodd;clip-rule:evenodd;fill:url(#SVGID_00000067954681496831786670000008967459447904240814_);">
	
		<!ENTITY st28 "fill-rule:evenodd;clip-rule:evenodd;fill:url(#Triangle-Copy-95_00000051344179633338473070000007375722789345994161_);">
	
		<!ENTITY st29 "fill-rule:evenodd;clip-rule:evenodd;fill:url(#Triangle-Copy-98_00000000918146381655824520000006155591297764689056_);">
	
		<!ENTITY st30 "fill-rule:evenodd;clip-rule:evenodd;fill:url(#Triangle-Copy-99_00000130643284328956070410000005407839132255882376_);">
]>
<svg version="1.1" id="Parall" xmlns="http://www.w3.org/2000/svg" xmlns:xlink="http://www.w3.org/1999/xlink" x="0px" y="0px"
	 viewBox="0 0 1045.6 629.8" style="enable-background:new 0 0 1045.6 629.8;" xml:space="preserve">
<g>
	
		<linearGradient id="Layer9_00000161602218491142307680000013863081320458796678_" gradientUnits="userSpaceOnUse" x1="226.1733" y1="1745.3612" x2="226.1733" y2="1745.0344" gradientTransform="matrix(2241.9998 0 0 -235 -506465.5938 410443.6875)">
		<stop  offset="0" style="stop-color:#AB6C94"/>
		<stop  offset="1" style="stop-color:#EEB7A3"/>
	</linearGradient>
	
		<path id="Layer9_00000168118989419333990010000007413501069933671358_" style="fill-rule:evenodd;clip-rule:evenodd;fill:url(#Layer9_00000161602218491142307680000013863081320458796678_);" d="
		M0,317.8c15.2,2.4,26.5,2.4,34,0c11.1-3.5,14.3-12.6,20.1-11.3c5.8,1.4,13.3,6.5,20.9,7.9c7.6,1.4,5.8,7.7,16,7.7s25,0.9,33.4-4.3
		c8.4-5.2,20.9-3.4,23.9-3.4c3,0,11.1-2.5,16.5-2.5c5.4,0,11.5,3.2,24.1,5.9c12.6,2.7,26.7,0,37.1,0c10.4,0,21.6,2.3,32.1,4.3
		c10.5,1.9,40.8-3.5,52.4-5.6c11.6-2.1,39.5,9.4,49.5,9.4c6.6,0,20.3-2.7,40.8-8.1c11.3-2,20.1-3.2,26.2-3.4
		c9.2-0.4,13.4,9.1,16.8,11.2c3.3,2.1,1.8,3.5,5.3,3.5c3.5,0,8.8-3.5,13.5-3.5s14.7-3.1,21.2-3.1c6.5,0,30.8-4.4,34.1-2.2
		s5.2,1.2,9.9,0s23.5-3.8,27.2-3.8c3.8,0,7-0.4,8.9,1.4c1.9,1.8,21,0.2,25.6,2.5c4.6,2.2,13.5-1.1,34-2.5c20.5-1.4,30.5-8,38.1-5.2
		c7.5,2.7,18.3,1.8,28.1,5.7c9.9,3.9,35.2-16.5,40.4-14.3c5.2,2.1,6.8,1.9,12.2,0c5.3-1.9,10.1-1.9,12.9-1.9
		c2.8,0,26.8,3.8,34.9,6.7s15.2,2,24.8,6.6c9.6,4.7,22,5.9,26.1,9c4.1,3.1,10.2,6.8,14.7,11.6c4.5,4.7,5-6,13.8-4.5
		c8.8,1.4,21.7-2.4,29.9,1.4c8.2,3.8,17.4,6.4,24.6,7.6c7.2,1.2,31.6,4.4,39.4,2.7c7.8-1.7,8.5-4.9,11.5-3.8c3,1.1,10,1.9,18.6,3.8
		c8.6,1.9,32.7,5.6,35.6,9.1c2.9,3.6-1.6,1.8,9.5,4.7c11.1,2.8,46.3,11.6,56.9,11.6c10.7,0,122.9,50.5,134.4,50.5
		c7.7,0-402.2,0-1229.8,0V317.8z"/>
	
		<linearGradient id="Layer6_00000012451913793826624870000011866070066255617701_" gradientUnits="userSpaceOnUse" x1="226.139" y1="1745.3931" x2="226.139" y2="1745.0662" gradientTransform="matrix(1648.5358 0 0 -234.0001 -372346.8125 408737.0312)">
		<stop  offset="0" style="stop-color:#AB6C94"/>
		<stop  offset="1" style="stop-color:#EEB7A3"/>
	</linearGradient>
	
		<path id="Layer6_00000021806802563332991410000006231609838477208249_" style="fill-rule:evenodd;clip-rule:evenodd;fill:url(#Layer6_00000012451913793826624870000011866070066255617701_);" d="
		M-2.2,324.4c18.2-2.7,32.5-3,42.7-0.9c15.3,3.2,21.7-4.8,33.1-3.2c11.4,1.5,13.5-3.7,22.4-3.7c8.9,0,7.5-5.2,24.3,2.5
		c11.2,5.1,29.6,11.5,55.1,19.2c7.7,1.7,15,5.2,21.8,10.6c10.3,8.1,37.3,32.3,56.6,35.5c19.4,3.2,53.1,13.3,70.2,5.5
		c17.1-7.8,23.6-15.6,35.1-23c11.6-7.4,13.1-8.4,27.5-14.3c14.4-5.9,7.3-10.8,16.9-10.8c9.7,0,8.4,2.3,43.4,4.9
		c35,2.6,81.5,6.2,96.2,3.6c14.7-2.6,47.7-21.6,58.8-16.9c10.2,4.4,33.2,10,57.5,15.6c2,0.5,65.8,17.8,86.5,17.8
		c20.7,0,100.9,70.5,156.1,70.5c36.8,0-264.7,0-904.3,0V324.4z"/>
</g>
</svg>
